<svg width="20" height="20" viewBox="0 0 20 20" fill="none" xmlns="http://www.w3.org/2000/svg">
<g clip-path="url(#clip0_7_5158)">
<path d="M13.3333 11.6666H14.5833V14.0166L16.6167 15.1916L15.9917 16.2749L13.3333 14.7416V11.6666ZM14.1667 9.99992C13.0616 9.99992 12.0018 10.4389 11.2204 11.2203C10.439 12.0017 10 13.0615 10 14.1666C10 15.2717 10.439 16.3315 11.2204 17.1129C12.0018 17.8943 13.0616 18.3333 14.1667 18.3333C15.2717 18.3333 16.3316 17.8943 17.113 17.1129C17.8944 16.3315 18.3333 15.2717 18.3333 14.1666C18.3333 13.0615 17.8944 12.0017 17.113 11.2203C16.3316 10.4389 15.2717 9.99992 14.1667 9.99992ZM14.1667 8.33325C15.7138 8.33325 17.1975 8.94783 18.2915 10.0418C19.3854 11.1358 20 12.6195 20 14.1666C20 15.7137 19.3854 17.1974 18.2915 18.2914C17.1975 19.3853 15.7138 19.9999 14.1667 19.9999C11.8417 19.9999 9.83334 18.6333 8.89168 16.6666H0.833344V14.1666C0.833344 11.9499 5.27501 10.8333 7.50001 10.8333C8.00001 10.8333 8.61668 10.8916 9.26668 10.9999C9.79524 10.1811 10.5207 9.50793 11.3768 9.04205C12.2328 8.57618 13.1921 8.33247 14.1667 8.33325ZM8.33334 14.1666C8.33334 13.5833 8.41668 13.0166 8.57501 12.4999C8.22501 12.4416 7.85834 12.4166 7.50001 12.4166C5.02501 12.4166 2.41668 13.6333 2.41668 14.1666V15.0833H8.40834C8.35821 14.7803 8.33313 14.4737 8.33334 14.1666ZM7.50001 3.33325C8.38407 3.33325 9.23191 3.68444 9.85703 4.30956C10.4822 4.93468 10.8333 5.78253 10.8333 6.66659C10.8333 7.55064 10.4822 8.39849 9.85703 9.02361C9.23191 9.64873 8.38407 9.99992 7.50001 9.99992C6.61595 9.99992 5.76811 9.64873 5.14299 9.02361C4.51787 8.39849 4.16668 7.55064 4.16668 6.66659C4.16668 5.78253 4.51787 4.93468 5.14299 4.30956C5.76811 3.68444 6.61595 3.33325 7.50001 3.33325ZM7.50001 4.91659C7.03588 4.91659 6.59076 5.10096 6.26257 5.42915C5.93438 5.75734 5.75001 6.20246 5.75001 6.66659C5.75001 7.13071 5.93438 7.57583 6.26257 7.90402C6.59076 8.23221 7.03588 8.41659 7.50001 8.41659C7.96414 8.41659 8.40926 8.23221 8.73745 7.90402C9.06564 7.57583 9.25001 7.13071 9.25001 6.66659C9.25001 6.20246 9.06564 5.75734 8.73745 5.42915C8.40926 5.10096 7.96414 4.91659 7.50001 4.91659Z" fill="white"/>
</g>
<defs>
<clipPath id="clip0_7_5158">
<rect width="20" height="20" fill="white"/>
</clipPath>
</defs>
</svg>
