<svg width="16" height="15" viewBox="0 0 16 15" fill="none" xmlns="http://www.w3.org/2000/svg">
<path d="M8.1 11.7188V12.625H8V11.9062V11.4062H7.5C7.04643 11.4062 6.55291 11.1917 6.06721 10.9203C5.8425 10.7609 5.65509 10.6029 5.47997 10.4233L5.78127 10.1126C5.94165 10.2675 6.11777 10.4088 6.29628 10.5244C6.73671 10.9088 7.37291 11 7.8 11C8.18611 11 8.72323 10.8823 9.14197 10.4898L9.17848 10.4555L9.20748 10.4148C9.45379 10.0684 9.6 9.68796 9.6 9.28125C9.6 8.89125 9.46244 8.46692 9.14197 8.16648L9.10638 8.13311L9.065 8.10725C8.74392 7.90658 8.32267 7.7065 7.98271 7.59597C7.90028 7.55747 7.81863 7.51992 7.73803 7.48285C7.1989 7.23489 6.70691 7.00862 6.34197 6.66648C6.06244 6.40442 5.9 5.985 5.9 5.53125V5.48715L5.89228 5.44373C5.83386 5.11509 6.00107 4.7133 6.36219 4.2835C6.70353 3.96973 7.11154 3.7503 7.49214 3.67894L7.9 3.60246V3.1875V2.375H8.1V3.1875V3.6875H8.6C8.93151 3.6875 9.23344 3.76677 9.435 3.89275C9.60061 3.99625 9.75375 4.09239 9.90111 4.19822L9.64492 4.51846C9.29562 4.27049 8.85791 4.10855 8.36828 4.09471C8.10279 4.03438 7.85977 4.08829 7.66807 4.16318C7.47577 4.2383 7.29331 4.35199 7.15498 4.43851C6.93205 4.55481 6.79807 4.74898 6.7232 4.90691C6.64304 5.07599 6.6 5.26607 6.6 5.4375C6.6 5.73427 6.74664 6.22176 7.23569 6.43444C7.59529 6.7433 8.03864 6.94172 8.46697 7.04481C8.98916 7.21017 9.4186 7.4528 9.85803 7.86477L9.87805 7.88354L9.9 7.9C10.2287 8.14652 10.4 8.62158 10.4 9.09375C10.4 9.62064 10.1509 10.2356 9.75803 10.604C9.41971 10.9212 9.00896 11.1488 8.52281 11.2247L8.1 11.2908V11.7188ZM0.5 7.5C0.5 3.68105 3.84525 0.5 8 0.5C12.1547 0.5 15.5 3.68105 15.5 7.5C15.5 11.319 12.1547 14.5 8 14.5C3.84525 14.5 0.5 11.319 0.5 7.5ZM0.6 7.5C0.6 11.3685 3.95475 14.4688 8 14.4688C12.0453 14.4688 15.4 11.3685 15.4 7.5C15.4 3.63145 12.0453 0.53125 8 0.53125C3.95475 0.53125 0.6 3.63145 0.6 7.5Z" fill="white" stroke="#FF7E86"/>
</svg>
