<svg width="18" height="18" viewBox="0 0 18 18" fill="none" xmlns="http://www.w3.org/2000/svg">
<path d="M8.0555 0.707266H6.37727C2.1817 0.707266 0.503469 2.33145 0.503469 6.3919V11.2644C0.503469 15.3249 2.1817 16.9491 6.37727 16.9491H11.412C15.6075 16.9491 17.2858 15.3249 17.2858 11.2644V9.64026" stroke="#FF7E86" stroke-linecap="round" stroke-linejoin="round"/>
<path d="M12.2847 1.53582L5.67248 7.93509C5.42074 8.17872 5.16901 8.65785 5.11866 9.00705L4.75784 11.4514C4.62359 12.3366 5.2697 12.9538 6.18434 12.832L8.71008 12.4828C9.0625 12.4341 9.55758 12.1904 9.81771 11.9468L16.4299 5.54755C17.5711 4.44311 18.1082 3.16 16.4299 1.53582C14.7517 -0.0883587 13.4259 0.431379 12.2847 1.53582Z" stroke="#FF7E86" stroke-miterlimit="10" stroke-linecap="round" stroke-linejoin="round"/>
<path d="M11.3364 2.45343C11.8986 4.39432 13.4678 5.91293 15.4816 6.46515" stroke="#FF7E86" stroke-miterlimit="10" stroke-linecap="round" stroke-linejoin="round"/>
</svg>
