<svg width="25" height="22" viewBox="0 0 25 22" fill="none" xmlns="http://www.w3.org/2000/svg">
<path d="M12.0441 10.7164C11.9581 10.7079 11.855 10.7079 11.7605 10.7164C9.71514 10.6477 8.09091 8.97191 8.09091 6.9094C8.09091 4.80392 9.79248 3.09376 11.9066 3.09376C14.012 3.09376 15.7222 4.80392 15.7222 6.9094C15.7136 8.97191 14.0894 10.6477 12.0441 10.7164Z" fill="white"/>
<path d="M7.7473 13.8876C5.6676 15.2798 5.6676 17.5486 7.7473 18.9322C10.1106 20.5134 13.9864 20.5134 16.3497 18.9322C18.4294 17.54 18.4294 15.2712 16.3497 13.8876C13.995 12.315 10.1192 12.315 7.7473 13.8876Z" fill="white"/>
<path opacity="0.4" d="M18.2316 7.62269C18.1456 7.61409 18.0425 7.61409 17.948 7.62269C15.9027 7.55393 14.2784 5.87815 14.2784 3.81564C14.2784 1.71016 15.98 0 18.0941 0C20.1996 0 21.9097 1.71016 21.9097 3.81564C21.9011 5.87815 20.2769 7.55393 18.2316 7.62269Z" fill="white"/>
<path opacity="0.4" d="M13.9348 10.7939C11.8551 12.1861 11.8551 14.4548 13.9348 15.8384C16.2981 17.4197 20.1739 17.4197 22.5372 15.8384C24.6169 14.4462 24.6169 12.1775 22.5372 10.7939C20.1825 9.22121 16.3067 9.22121 13.9348 10.7939Z" fill="white"/>
<path opacity="0.4" d="M5.85653 7.62269C5.77059 7.61409 5.66747 7.61409 5.57293 7.62269C3.52761 7.55393 1.90339 5.87815 1.90339 3.81564C1.90339 1.71016 3.60496 0 5.71903 0C7.82451 0 9.53467 1.71016 9.53467 3.81564C9.52607 5.87815 7.90185 7.55393 5.85653 7.62269Z" fill="white"/>
<path opacity="0.4" d="M1.55977 10.7939C-0.519924 12.1861 -0.519924 14.4548 1.55977 15.8384C3.92306 17.4197 7.79886 17.4197 10.1621 15.8384C12.2418 14.4462 12.2418 12.1775 10.1621 10.7939C7.80745 9.22121 3.93166 9.22121 1.55977 10.7939Z" fill="white"/>
</svg>
