<svg width="20" height="20" viewBox="0 0 20 20" fill="none" xmlns="http://www.w3.org/2000/svg">
<g clip-path="url(#clip0_30_4825)">
<path d="M3.33333 13.8333H8.33333C8.55435 13.8333 8.76631 13.7455 8.92259 13.5893C9.07887 13.433 9.16667 13.221 9.16667 13V6.33333C9.16667 6.11232 9.07887 5.90036 8.92259 5.74408C8.76631 5.5878 8.55435 5.5 8.33333 5.5H3.33333C3.11232 5.5 2.90036 5.5878 2.74408 5.74408C2.5878 5.90036 2.5 6.11232 2.5 6.33333V13C2.5 13.221 2.5878 13.433 2.74408 13.5893C2.90036 13.7455 3.11232 13.8333 3.33333 13.8333ZM2.5 19.6667C2.5 19.8877 2.5878 20.0996 2.74408 20.2559C2.90036 20.4122 3.11232 20.5 3.33333 20.5H8.33333C8.55435 20.5 8.76631 20.4122 8.92259 20.2559C9.07887 20.0996 9.16667 19.8877 9.16667 19.6667V16.3333C9.16667 16.1123 9.07887 15.9004 8.92259 15.7441C8.76631 15.5878 8.55435 15.5 8.33333 15.5H3.33333C3.11232 15.5 2.90036 15.5878 2.74408 15.7441C2.5878 15.9004 2.5 16.1123 2.5 16.3333V19.6667ZM10.8333 19.6667C10.8333 19.8877 10.9211 20.0996 11.0774 20.2559C11.2337 20.4122 11.4457 20.5 11.6667 20.5H16.6667C16.8877 20.5 17.0996 20.4122 17.2559 20.2559C17.4122 20.0996 17.5 19.8877 17.5 19.6667V13.8333C17.5 13.6123 17.4122 13.4004 17.2559 13.2441C17.0996 13.0878 16.8877 13 16.6667 13H11.6667C11.4457 13 11.2337 13.0878 11.0774 13.2441C10.9211 13.4004 10.8333 13.6123 10.8333 13.8333V19.6667ZM11.6667 11.3333H16.6667C16.8877 11.3333 17.0996 11.2455 17.2559 11.0893C17.4122 10.933 17.5 10.721 17.5 10.5V6.33333C17.5 6.11232 17.4122 5.90036 17.2559 5.74408C17.0996 5.5878 16.8877 5.5 16.6667 5.5H11.6667C11.4457 5.5 11.2337 5.5878 11.0774 5.74408C10.9211 5.90036 10.8333 6.11232 10.8333 6.33333V10.5C10.8333 10.721 10.9211 10.933 11.0774 11.0893C11.2337 11.2455 11.4457 11.3333 11.6667 11.3333Z" fill="white"/>
</g>
<defs>
<clipPath id="clip0_30_4825">
<rect width="20" height="20" fill="white"/>
</clipPath>
</defs>
</svg>
