<svg width="24" height="24" viewBox="0 0 24 24" fill="none" xmlns="http://www.w3.org/2000/svg">
<path fill-rule="evenodd" clip-rule="evenodd" d="M3.91382 6H19.8758C20.3932 6 20.8165 6.427 20.8165 6.949V7.051C20.8165 7.573 20.3932 8 19.8758 8H3.91382C3.39639 8 2.97412 7.573 2.97412 7.051V6.949C2.97412 6.427 3.39639 6 3.91382 6ZM19.8758 11H3.91382C3.39639 11 2.97412 11.427 2.97412 11.949V12.051C2.97412 12.573 3.39639 13 3.91382 13H19.8758C20.3932 13 20.8165 12.573 20.8165 12.051V11.949C20.8165 11.427 20.3932 11 19.8758 11ZM19.8758 16H3.91382C3.39639 16 2.97412 16.427 2.97412 16.949V17.051C2.97412 17.573 3.39639 18 3.91382 18H19.8758C20.3932 18 20.8165 17.573 20.8165 17.051V16.949C20.8165 16.427 20.3932 16 19.8758 16Z" fill="#2E3A59"/>
</svg>
