<svg width="20" height="20" viewBox="0 0 20 20" fill="none" xmlns="http://www.w3.org/2000/svg">
<g clip-path="url(#clip0_30_4881)">
<path d="M13.3334 10.6666H14.5834V13.0166L16.6167 14.1916L15.9917 15.2749L13.3334 13.7416V10.6666ZM14.1667 8.99992C13.0616 8.99992 12.0018 9.43891 11.2204 10.2203C10.439 11.0017 10 12.0615 10 13.1666C10 14.2717 10.439 15.3315 11.2204 16.1129C12.0018 16.8943 13.0616 17.3333 14.1667 17.3333C15.2718 17.3333 16.3316 16.8943 17.113 16.1129C17.8944 15.3315 18.3334 14.2717 18.3334 13.1666C18.3334 12.0615 17.8944 11.0017 17.113 10.2203C16.3316 9.43891 15.2718 8.99992 14.1667 8.99992ZM14.1667 7.33325C15.7138 7.33325 17.1975 7.94783 18.2915 9.0418C19.3855 10.1358 20 11.6195 20 13.1666C20 14.7137 19.3855 16.1974 18.2915 17.2914C17.1975 18.3853 15.7138 18.9999 14.1667 18.9999C11.8417 18.9999 9.83337 17.6333 8.89171 15.6666H0.833374V13.1666C0.833374 10.9499 5.27504 9.83325 7.50004 9.83325C8.00004 9.83325 8.61671 9.89159 9.26671 9.99992C9.79527 9.18109 10.5208 8.50793 11.3768 8.04205C12.2329 7.57618 13.1921 7.33247 14.1667 7.33325ZM8.33337 13.1666C8.33337 12.5833 8.41671 12.0166 8.57504 11.4999C8.22504 11.4416 7.85837 11.4166 7.50004 11.4166C5.02504 11.4166 2.41671 12.6333 2.41671 13.1666V14.0833H8.40837C8.35824 13.7803 8.33316 13.4737 8.33337 13.1666ZM7.50004 2.33325C8.3841 2.33325 9.23194 2.68444 9.85706 3.30956C10.4822 3.93468 10.8334 4.78253 10.8334 5.66659C10.8334 6.55064 10.4822 7.39849 9.85706 8.02361C9.23194 8.64873 8.3841 8.99992 7.50004 8.99992C6.61599 8.99992 5.76814 8.64873 5.14302 8.02361C4.5179 7.39849 4.16671 6.55064 4.16671 5.66659C4.16671 4.78253 4.5179 3.93468 5.14302 3.30956C5.76814 2.68444 6.61599 2.33325 7.50004 2.33325ZM7.50004 3.91659C7.03591 3.91659 6.59079 4.10096 6.2626 4.42915C5.93441 4.75734 5.75004 5.20246 5.75004 5.66659C5.75004 6.13071 5.93441 6.57583 6.2626 6.90402C6.59079 7.23221 7.03591 7.41659 7.50004 7.41659C7.96417 7.41659 8.40929 7.23221 8.73748 6.90402C9.06567 6.57583 9.25004 6.13071 9.25004 5.66659C9.25004 5.20246 9.06567 4.75734 8.73748 4.42915C8.40929 4.10096 7.96417 3.91659 7.50004 3.91659Z" fill="#FF7E86"/>
</g>
<defs>
<clipPath id="clip0_30_4881">
<rect width="20" height="20" fill="white"/>
</clipPath>
</defs>
</svg>
