<svg width="37" height="31" viewBox="0 0 37 31" fill="none" xmlns="http://www.w3.org/2000/svg">
<path d="M24.1668 15.4999C24.1668 17.998 21.7163 20.1666 18.5002 20.1666C15.284 20.1666 12.8335 17.998 12.8335 15.4999C12.8335 13.0018 15.284 10.8333 18.5002 10.8333C21.7163 10.8333 24.1668 13.0018 24.1668 15.4999Z" stroke="#FF7E86"/>
<path d="M31.3042 14.3093C31.8102 14.834 32.0632 15.0964 32.0632 15.5C32.0632 15.9036 31.8102 16.166 31.3042 16.6907C29.2089 18.8635 24.265 23.25 18.5 23.25C12.735 23.25 7.79112 18.8635 5.69585 16.6907C5.18984 16.166 4.93683 15.9036 4.93683 15.5C4.93683 15.0964 5.18984 14.834 5.69585 14.3093C7.79112 12.1365 12.735 7.75 18.5 7.75C24.265 7.75 29.2089 12.1365 31.3042 14.3093Z" stroke="#FF7E86"/>
</svg>
