<svg width="34" height="27" viewBox="0 0 34 27" fill="none" xmlns="http://www.w3.org/2000/svg">
<path d="M22.1666 13.5C22.1666 15.6078 19.967 17.5 16.9999 17.5C14.0328 17.5 11.8333 15.6078 11.8333 13.5C11.8333 11.3922 14.0328 9.5 16.9999 9.5C19.967 9.5 22.1666 11.3922 22.1666 13.5Z" stroke="#FF7E86"/>
<path d="M28.5811 12.2832C29.1294 12.8107 29.4035 13.0744 29.4035 13.5C29.4035 13.9256 29.1294 14.1893 28.5811 14.7168C26.5607 16.6607 22.1348 20.25 17 20.25C11.8652 20.25 7.43931 16.6607 5.41887 14.7168C4.87059 14.1893 4.59646 13.9256 4.59646 13.5C4.59646 13.0744 4.87059 12.8107 5.41887 12.2832C7.43931 10.3393 11.8652 6.75 17 6.75C22.1348 6.75 26.5607 10.3393 28.5811 12.2832Z" stroke="#FF7E86"/>
</svg>
