<svg width="34" height="33" viewBox="0 0 34 33" fill="none" xmlns="http://www.w3.org/2000/svg">
<path fill-rule="evenodd" clip-rule="evenodd" d="M14.3622 2.49573C14.9967 2.31097 15.667 2.27275 16.3195 2.38412C16.9719 2.49549 17.5885 2.75335 18.1201 3.13714C18.6516 3.52092 19.0833 4.01999 19.3808 4.59452C19.6783 5.16904 19.8333 5.80311 19.8334 6.4461V26.5541C19.8333 27.1971 19.6783 27.8312 19.3808 28.4057C19.0833 28.9802 18.6516 29.4793 18.1201 29.8631C17.5885 30.2468 16.9719 30.5047 16.3195 30.6161C15.667 30.7274 14.9967 30.6892 14.3622 30.5045L5.86221 28.0295C4.98685 27.7746 4.21945 27.2527 3.67386 26.5411C3.12826 25.8295 2.83352 24.9661 2.83337 24.0791V8.9211C2.83352 8.03408 3.12826 7.17074 3.67386 6.45914C4.21945 5.74754 4.98685 5.2256 5.86221 4.97073L14.3622 2.49573ZM21.25 5.5001C21.25 5.13543 21.3993 4.78569 21.665 4.52783C21.9306 4.26997 22.291 4.1251 22.6667 4.1251H26.9167C28.0439 4.1251 29.1249 4.5597 29.9219 5.33329C30.7189 6.10687 31.1667 7.15608 31.1667 8.2501V9.6251C31.1667 9.98977 31.0175 10.3395 30.7518 10.5974C30.4861 10.8552 30.1258 11.0001 29.75 11.0001C29.3743 11.0001 29.014 10.8552 28.7483 10.5974C28.4826 10.3395 28.3334 9.98977 28.3334 9.6251V8.2501C28.3334 7.88543 28.1841 7.53569 27.9184 7.27783C27.6528 7.01997 27.2924 6.8751 26.9167 6.8751H22.6667C22.291 6.8751 21.9306 6.73023 21.665 6.47237C21.3993 6.21451 21.25 5.86477 21.25 5.5001ZM29.75 22.0001C30.1258 22.0001 30.4861 22.145 30.7518 22.4028C31.0175 22.6607 31.1667 23.0104 31.1667 23.3751V24.7501C31.1667 25.8441 30.7189 26.8933 29.9219 27.6669C29.1249 28.4405 28.0439 28.8751 26.9167 28.8751H22.6667C22.291 28.8751 21.9306 28.7302 21.665 28.4724C21.3993 28.2145 21.25 27.8648 21.25 27.5001C21.25 27.1354 21.3993 26.7857 21.665 26.5278C21.9306 26.27 22.291 26.1251 22.6667 26.1251H26.9167C27.2924 26.1251 27.6528 25.9802 27.9184 25.7224C28.1841 25.4645 28.3334 25.1148 28.3334 24.7501V23.3751C28.3334 23.0104 28.4826 22.6607 28.7483 22.4028C29.014 22.145 29.3743 22.0001 29.75 22.0001ZM12.75 15.1251C12.3743 15.1251 12.014 15.27 11.7483 15.5278C11.4826 15.7857 11.3334 16.1354 11.3334 16.5001C11.3334 16.8648 11.4826 17.2145 11.7483 17.4724C12.014 17.7302 12.3743 17.8751 12.75 17.8751H12.7515C13.1272 17.8751 13.4875 17.7302 13.7532 17.4724C14.0189 17.2145 14.1681 16.8648 14.1681 16.5001C14.1681 16.1354 14.0189 15.7857 13.7532 15.5278C13.4875 15.27 13.1272 15.1251 12.7515 15.1251H12.75Z" fill="#292D32"/>
<path d="M29.7501 16.5L26.9167 19.25M22.6667 16.5H29.7501H22.6667ZM29.7501 16.5L26.9167 13.75L29.7501 16.5Z" stroke="#FF7E86" stroke-width="3.33333" stroke-linecap="round" stroke-linejoin="round"/>
</svg>
