<svg width="20" height="15" viewBox="0 0 20 15" fill="none" xmlns="http://www.w3.org/2000/svg">
<path d="M16.7278 4.5607L16.8535 4.875H17.192H19.491L19.2723 5.75H18.5127H17.181L18.1837 6.62646C18.6077 6.99704 18.8749 7.52926 18.8749 8.125V10C18.8749 10.4988 18.6851 10.9524 18.3735 11.3087L18.2499 11.4501V11.6379V13.75C18.2499 14.1641 17.9139 14.5 17.4999 14.5H16.2499C15.8358 14.5 15.4999 14.1641 15.4999 13.75V12.5V12H14.9999H4.99986H4.49986V12.5V13.75C4.49986 14.1641 4.16395 14.5 3.74986 14.5H2.49986C2.08577 14.5 1.74986 14.1641 1.74986 13.75V11.6379V11.4502L1.62635 11.3089C1.31453 10.9521 1.12486 10.4984 1.12486 10V8.125C1.12486 7.52929 1.39202 6.99713 1.81627 6.62658L2.8199 5.75H1.48736H0.727844L0.509094 4.875H2.80728H3.1458L3.27152 4.5607L3.92151 2.93571C3.92151 2.93571 3.92152 2.9357 3.92152 2.93569C4.51394 1.45485 5.9246 0.5 7.51939 0.5H12.4803C14.0755 0.5 15.4857 1.45484 16.0778 2.93562L16.0778 2.93569L16.7278 4.5607ZM5.31415 3.49278L5.31413 3.49284L4.53561 5.43932L4.26137 6.125H4.99986H14.9999H15.7383L15.4641 5.43932L14.6856 3.49284L14.6856 3.49278C14.3249 2.59125 13.4516 2 12.4803 2H7.51939C6.54816 2 5.67486 2.59125 5.31415 3.49278ZM1.99986 8.74609C1.99986 9.23402 2.16523 9.67926 2.49061 10.0036C2.81584 10.3278 3.2617 10.4922 3.74986 10.4922C3.8202 10.4922 3.90172 10.4938 3.99066 10.4956C4.30637 10.5018 4.71565 10.5099 5.05056 10.4543C5.27226 10.4174 5.53459 10.3439 5.74911 10.1728C5.98931 9.98126 6.12486 9.70296 6.12486 9.36914C6.12486 9.06526 6.01393 8.76915 5.87411 8.51827C5.73086 8.26122 5.53664 8.01446 5.32161 7.80009C5.10656 7.58572 4.85911 7.3922 4.60147 7.24951C4.34994 7.11021 4.05359 7 3.74986 7C3.2617 7 2.81584 7.16435 2.49061 7.48857C2.16523 7.81293 1.99986 8.25817 1.99986 8.74609ZM13.8749 9.36914C13.8749 9.70296 14.0104 9.98126 14.2506 10.1728C14.4651 10.3439 14.7275 10.4174 14.9492 10.4543C15.2841 10.5099 15.6933 10.5018 16.0091 10.4956C16.098 10.4938 16.1795 10.4922 16.2499 10.4922C16.738 10.4922 17.1839 10.3278 17.5091 10.0036C17.8345 9.67926 17.9999 9.23402 17.9999 8.74609C17.9999 8.25817 17.8345 7.81293 17.5091 7.48857C17.1839 7.16435 16.738 7 16.2499 7C15.9461 7 15.6498 7.11021 15.3982 7.24951C15.1406 7.3922 14.8932 7.58572 14.6781 7.80009C14.4631 8.01446 14.2689 8.26122 14.1256 8.51827C13.9858 8.76915 13.8749 9.06526 13.8749 9.36914Z" fill="white" stroke="#FF7E86"/>
</svg>
